<svg id="图层_1" data-name="图层 1" xmlns="http://www.w3.org/2000/svg" viewBox="0 0 534.68 337.41"><defs><style>.cls-1{fill:#fff;stroke:#000;}.cls-1,.cls-2{stroke-miterlimit:10;}.cls-2{fill:#fff9aa;stroke:#fbb03b;stroke-width:2px;}.cls-3{fill:#ffdc7f;}.cls-4{fill:#f6ffaa;}</style></defs><title>building</title><path class="cls-1" d="M91.24,73.48" transform="translate(-140.42 -94.77)"/><polygon class="cls-2" points="533.68 262.56 533.68 209.06 533.68 140.69 533.68 70.85 533.68 1 442.97 1 356.12 1 259.62 1 163.12 1 66.62 1 1 1 1 335.38 93.64 264.04 533.68 262.56"/><polygon class="cls-3" points="319.68 205.45 319.68 261.99 386.82 261.99 386.82 171.19 319.68 205.45"/><rect class="cls-3" x="390.34" y="185.8" width="34.29" height="76.19"/><rect class="cls-3" x="426.01" y="185.8" width="106.67" height="76.19"/><path class="cls-4" d="M552.67,278.24" transform="translate(-140.42 -94.77)"/><polygon class="cls-3" points="398.34 165.33 398.34 183.19 440.25 183.19 440.25 146.99 398.34 165.33"/><polygon class="cls-3" points="444.11 143.74 444.11 183.95 532.68 183.95 532.68 102.04 444.11 143.74"/><path class="cls-3" d="M714.1,228.71" transform="translate(-140.42 -94.77)"/><path class="cls-3" d="M787,195.38" transform="translate(-140.42 -94.77)"/><rect class="cls-3" x="1.86" y="150.9" width="49.77" height="52.86"/><rect class="cls-3" x="54.44" y="150.9" width="31.43" height="52.86"/><path class="cls-3" d="M163.62,225.86" transform="translate(-140.42 -94.77)"/><rect class="cls-3" x="1.86" y="127.85" width="18.35" height="20.48"/><rect class="cls-3" x="1.86" y="107.66" width="18.35" height="17.62"/><path class="cls-2" d="M-64,198.71" transform="translate(-140.42 -94.77)"/><rect class="cls-3" x="23.53" y="107.02" width="28.1" height="41.67"/><rect class="cls-3" x="1.86" y="80.33" width="49.77" height="24.76"/><polyline class="cls-3" points="1.58 76.46 1.58 50.23 30.58 77.23"/><path class="cls-3" d="M147.9,300.14" transform="translate(-140.42 -94.77)"/><polygon class="cls-3" points="2.45 206.18 2.71 332.53 93.57 262.15 312.57 261.7 312.46 207.55 2.45 206.18"/><polygon class="cls-3" points="2.58 2.23 2.58 44.8 34.58 77.23 150.58 77.23 150.58 33.65 76.58 33.65 45.58 2.23 2.58 2.23"/><path class="cls-3" d="M91,217" transform="translate(-140.42 -94.77)"/><polygon class="cls-3" points="51.58 2.23 79.58 31.23 150.58 31.23 150.58 2.23 51.58 2.23"/><rect class="cls-3" x="155.58" y="2.23" width="74" height="75"/><rect class="cls-3" x="315.58" y="3.23" width="217" height="89"/><path class="cls-3" d="M194,175" transform="translate(-140.42 -94.77)"/><polyline class="cls-3" points="54.58 80.23 229.58 80.23 229.58 122.86 100.1 122.86 100.1 148.23 54.58 148.23 54.58 82.26"/><rect class="cls-3" x="103.58" y="125.23" width="126" height="23"/><rect class="cls-3" x="89.58" y="151.23" width="94" height="52"/><path class="cls-3" d="M418,260" transform="translate(-140.42 -94.77)"/><path class="cls-3" d="M440,148" transform="translate(-140.42 -94.77)"/><polygon class="cls-3" points="232.58 1.23 232.58 147.23 350.58 147.23 350.58 96.89 312.99 96.89 312.99 1.23 232.58 1.23"/><polygon class="cls-3" points="186.58 151.23 186.58 203.23 312.58 203.23 350.58 184.23 350.58 151.23 186.58 151.23"/><polygon class="cls-3" points="355.58 97.23 355.58 180.23 473.58 125.23 398.58 125.23 398.58 97.23 355.58 97.23"/><polygon class="cls-3" points="405.58 97.23 405.58 122.23 476.58 122.23 528.58 100.23 528.58 97.23 405.58 97.23"/></svg>